<svg xmlns="http://www.w3.org/2000/svg" viewBox="0 0 64 64" aria-hidden="true">
  <path
    fill="#ffffff"
    fill-rule="evenodd"
    d="M21.5 10h21C48.9 10 54 15.1 54 21.5v21C54 48.9 48.9 54 42.5 54h-21C15.1 54 10 48.9 10 42.5v-21C10 15.1 15.1 10 21.5 10Zm0 4C17.3 14 14 17.3 14 21.5v21c0 4.2 3.3 7.5 7.5 7.5h21c4.2 0 7.5-3.3 7.5-7.5v-21c0-4.2-3.3-7.5-7.5-7.5h-21ZM32 20.5c-6.4 0-11.5 5.1-11.5 11.5S25.6 43.5 32 43.5 43.5 38.4 43.5 32 38.4 20.5 32 20.5Zm0 4c4.2 0 7.5 3.3 7.5 7.5s-3.3 7.5-7.5 7.5-7.5-3.3-7.5-7.5 3.3-7.5 7.5-7.5Zm12.8-6.3a2.9 2.9 0 1 0 0 5.8 2.9 2.9 0 0 0 0-5.8Z"
    clip-rule="evenodd"
  />
</svg>
