<?xml version="1.0" encoding="utf-8"?>
<svg xmlns="http://www.w3.org/2000/svg" viewBox="0 0 240 234" aria-hidden="true">
  <path fill="#1E3101" d="M42.5 0h155C220.972 0 240 19.028 240 42.5v149c0 23.472-19.028 42.5-42.5 42.5h-155C19.028 234 0 214.972 0 191.5v-149C0 19.028 19.028 0 42.5 0z"/>
  <path fill="#99E83F" d="M51.911 164.095V61.216c0-.75.322-1.127.966-1.127 1.716 0 3.755-.027 6.118-.081 2.359-.053 4.909-.106 7.647-.161 2.737-.053 5.635-.107 8.694-.161 3.059-.053 6.091-.08 9.097-.081 8.156 0 15.025 1.02 20.608 3.059 5.036 1.703 9.628 4.509 13.443 8.211 3.234 3.209 5.733 7.082 7.326 11.351 1.506 4.154 2.269 8.542 2.254 12.96 0 8.588-1.986 15.672-5.957 21.252-3.998 5.603-9.617 9.845-16.1 12.156-7.226 2.602-14.861 3.884-22.54 3.784-2.362 0-4.025-.027-4.991-.081-.966-.053-2.415-.08-4.347-.081v31.717c.1.7-.386 1.349-1.086 1.449a1.3 1.3 0 0 1-.362 0H53.038c-.752 0-1.127-.427-1.127-1.288Zm22.218-84.686v33.327c1.394.108 2.682.162 3.864.161h5.313c3.897.057 7.779-.486 11.511-1.61 3.19-.947 6.04-2.792 8.211-5.313 2.093-2.468 3.14-5.902 3.14-10.304.085-3.114-.725-6.188-2.334-8.855-1.692-2.579-4.137-4.575-7.003-5.715-3.742-1.455-7.74-2.139-11.753-2.012-2.576 0-4.857.027-6.843.08-1.988.054-3.356.135-4.106.241ZM187.794 149.444v13.202c0 1.182-.429 1.88-1.288 2.093-2.113.662-4.264 1.2-6.44 1.61-2.55.454-5.138.67-7.728.644-6.979 0-12.452-1.825-16.422-5.474-3.972-3.648-5.958-9.497-5.957-17.549v-39.928h-9.499c-.86 0-1.288-.483-1.288-1.449V86.654c0-.858.483-1.287 1.449-1.288h9.499c.106-1.824.24-3.944.403-6.359.161-2.415.375-4.83.644-7.245.267-2.415.508-4.374.724-5.876.106-.322.27-.622.483-.885.208-.262.487-.458.805-.563l19.159-2.415c.42-.069.692-.069.885.044.213.108.242.386.242.922-.216 2.47-.377 5.825-.483 10.062-.108 4.241-.216 8.347-.322 12.316h14.973c.644 0 .966.429.966 1.288v16.261c.082.532-.275 1.032-.805 1.127h-15.295v34.454c0 3.65.617 6.253 1.852 7.808 1.232 1.557 3.513 2.336 6.842 2.335.966 0 1.876-.025 2.737-.081.858-.053 1.717-.133 2.576-.241.292-.109.618-.08.885.08.214.215.35.564.35 1.1Z"/>
</svg>
