<svg xmlns="http://www.w3.org/2000/svg" viewBox="0 0 64 64" aria-hidden="true">
  <path fill="#25f4ee" d="M37 16c1.7 4.2 4.9 6.8 9.2 7.4v6.4c-3.2-.1-6.2-1.1-8.9-2.9v11.6c0 7.3-4.8 11.9-11.9 11.9-6.2 0-10.9-4.4-10.9-10.3 0-6.1 5-10.9 11.6-10.9 1 0 2 .2 2.9.4v6a8.9 8.9 0 0 0-2.8-.4c-3 0-5.2 2-5.2 4.7 0 2.8 2.1 4.7 5 4.7 3.6 0 5.4-2.2 5.4-6.1V16Z" transform="translate(-1.8,1.4)"/>
  <path fill="#fe2c55" d="M37 16c1.7 4.2 4.9 6.8 9.2 7.4v6.4c-3.2-.1-6.2-1.1-8.9-2.9v11.6c0 7.3-4.8 11.9-11.9 11.9-6.2 0-10.9-4.4-10.9-10.3 0-6.1 5-10.9 11.6-10.9 1 0 2 .2 2.9.4v6a8.9 8.9 0 0 0-2.8-.4c-3 0-5.2 2-5.2 4.7 0 2.8 2.1 4.7 5 4.7 3.6 0 5.4-2.2 5.4-6.1V16Z" transform="translate(1.2,-1.2)"/>
  <path fill="#ffffff" d="M37 16c1.7 4.2 4.9 6.8 9.2 7.4v6.4c-3.2-.1-6.2-1.1-8.9-2.9v11.6c0 7.3-4.8 11.9-11.9 11.9-6.2 0-10.9-4.4-10.9-10.3 0-6.1 5-10.9 11.6-10.9 1 0 2 .2 2.9.4v6a8.9 8.9 0 0 0-2.8-.4c-3 0-5.2 2-5.2 4.7 0 2.8 2.1 4.7 5 4.7 3.6 0 5.4-2.2 5.4-6.1V16Z"/>
</svg>
