<svg xmlns="http://www.w3.org/2000/svg" viewBox="0 0 64 64" aria-hidden="true">
  <rect x="8" y="8" width="48" height="48" rx="12" fill="#241b2a"/>
  <path fill="#ff0f7b" d="M38 16c1.6 4 4.7 6.6 9 7.2v7c-3.5-.1-6.7-1.2-9-3.1v12.1C38 46 33 50 26.7 50 20.6 50 16 45.8 16 40c0-6 4.9-10.8 11.2-10.8 1 0 1.8.1 2.8.4v7.1a6 6 0 0 0-2.6-.6c-2.8 0-4.9 1.8-4.9 4.1 0 2.4 2 4.2 4.8 4.2 3.3 0 5.1-2 5.1-5.8V16Z"/>
  <path fill="#39ff14" d="M35 14c1.4 4 4.1 6.9 8 8v4.2c-3-.6-5.7-2-8-4V37c0 5.5-3.3 9-8.8 9-3.6 0-6.7-2.1-8-5.1 1.4 1.7 3.5 2.8 5.9 2.8 4.7 0 7.6-3.2 7.6-8.5V14Z"/>
</svg>
